<?xml version="1.0" encoding="UTF-8" standalone="no"?>
<!DOCTYPE svg PUBLIC "-//W3C//DTD SVG 1.1//EN" "http://www.w3.org/Graphics/SVG/1.1/DTD/svg11.dtd">
<svg width="100%" height="100%" viewBox="0 0 121 121" version="1.1" xmlns="http://www.w3.org/2000/svg" xmlns:xlink="http://www.w3.org/1999/xlink" xml:space="preserve" xmlns:serif="http://www.serif.com/" style="fill-rule:evenodd;clip-rule:evenodd;stroke-linejoin:round;stroke-miterlimit:2;">
    <g transform="matrix(1,0,0,1,-6835.91,-798.592)">
        <g transform="matrix(8.66029,0,0,8.66029,-884.099,-202.648)">
            <g transform="matrix(0.268687,0,0,0.268687,661.014,86.6753)">
                <g transform="matrix(0.11547,0,0,0.11547,853.854,103.937)">
                    <path d="M256,480L64,480C46.445,480 32,465.555 32,448L32,405.333C32.076,340.995 84.995,288.076 149.333,288L170.667,288C235.005,288.076 287.924,340.995 288,405.333L288,448C288,465.555 273.555,480 256,480ZM149.333,309.333C96.694,309.398 53.398,352.694 53.333,405.333L53.333,448C53.333,453.852 58.148,458.667 64,458.667L256,458.667C261.852,458.667 266.667,453.852 266.667,448L266.667,405.333C266.602,352.694 223.306,309.398 170.667,309.333L149.333,309.333Z" style="fill:rgb(33,119,186);fill-rule:nonzero;"/>
                </g>
                <g transform="matrix(0.11547,0,0,0.11547,853.854,103.937)">
                    <path d="M160,266.667C107.336,266.667 64,223.331 64,170.667C64,118.003 107.336,74.667 160,74.667C212.664,74.667 256,118.003 256,170.667C255.936,223.306 212.64,266.602 160,266.667ZM160,96C119.039,96 85.333,129.706 85.333,170.667C85.333,211.628 119.039,245.333 160,245.333C200.961,245.333 234.667,211.628 234.667,170.667C234.62,129.723 200.943,96.047 160,96Z" style="fill:rgb(33,119,186);fill-rule:nonzero;"/>
                </g>
                <g transform="matrix(0.11547,0,0,0.11547,853.854,103.937)">
                    <path d="M330.752,330.667C323.129,330.664 315.517,330.093 307.979,328.96C259.672,321.67 217.953,290.984 196.608,247.04C195.895,245.58 195.524,243.977 195.524,242.352C195.524,236.491 200.347,231.668 206.208,231.668C208.851,231.668 237.421,225.372 243.15,194.445C246.258,177.671 245.835,183.145 223.627,111.04C222.571,107.613 218.301,115.843 214.715,115.843C208.861,115.843 204.045,111.027 204.045,105.173C204.045,103.088 204.656,101.048 205.803,99.307C233.45,57.674 280.227,32.587 330.203,32.587C412.125,32.587 479.536,99.998 479.536,181.92C479.536,209.043 472.147,235.66 458.165,258.901L463.339,283.435C463.791,285.595 464.019,287.797 464.019,290.004C464.019,307.594 449.545,322.068 431.955,322.068C429.065,322.068 426.188,321.678 423.403,320.907L398.869,314.069C377.836,325.016 354.463,330.711 330.752,330.667ZM352,266.667C357.852,266.667 362.667,261.852 362.667,256C362.667,250.148 357.852,245.333 352,245.333L341.333,245.333L341.333,181.333L346.667,181.333C352.518,181.333 357.333,176.518 357.333,170.667C357.333,164.815 352.518,160 346.667,160L314.667,160C308.815,160 304,164.815 304,170.667C304,176.518 308.815,181.333 314.667,181.333L320,181.333L320,245.333L309.333,245.333C303.482,245.333 298.667,250.148 298.667,256C298.667,261.852 303.482,266.667 309.333,266.667L352,266.667ZM330.667,112C321.836,112 314.667,119.169 314.667,128C314.667,136.831 321.836,144 330.667,144C339.497,144 346.667,136.831 346.667,128C346.667,119.169 339.497,112 330.667,112Z" style="fill:rgb(33,119,186);"/>
                </g>
            </g>
        </g>
    </g>
</svg>
