<?xml version="1.0" encoding="UTF-8" standalone="no"?>
<!DOCTYPE svg PUBLIC "-//W3C//DTD SVG 1.1//EN" "http://www.w3.org/Graphics/SVG/1.1/DTD/svg11.dtd">
<svg width="100%" height="100%" viewBox="0 0 121 121" version="1.1" xmlns="http://www.w3.org/2000/svg" xmlns:xlink="http://www.w3.org/1999/xlink" xml:space="preserve" xmlns:serif="http://www.serif.com/" style="fill-rule:evenodd;clip-rule:evenodd;stroke-linejoin:round;stroke-miterlimit:2;">
    <g transform="matrix(1,0,0,1,-6363.51,-798.592)">
        <g transform="matrix(8.66029,0,0,8.66029,-1356.53,-202.648)">
            <g transform="matrix(0.027104,0,0,0.027104,891.43,115.613)">
                <g>
                    <path d="M10,512L382,512C387.522,512 392,507.523 392,502L392.001,316C392.001,313.348 390.947,310.804 389.072,308.929C387.196,307.054 384.653,306 382.001,306L329,306L329,286C329,263.944 311.056,246 289,246C266.944,246 249,263.944 249,286L249,306L206,306L206,253C206,247.477 201.522,243 196,243L163,243C151.972,243 143,234.028 143,223C143,211.972 151.972,203 163,203L196,203C201.522,203 206,198.523 206,193L206,130C206,124.477 201.522,120 196,120L143,120L143,100C143,77.944 125.056,60 103,60C80.944,60 63,77.944 63,100L63,120L10,120C4.478,120 0,124.477 0,130L0,502C0,507.523 4.478,512 10,512ZM206,326L259,326C264.522,326 269,321.523 269,316L269,286C269,274.972 277.972,266 289,266C300.028,266 309,274.972 309,286L309,316C309,321.523 313.478,326 319,326L372.001,326L372,492L206,492L206,449L229,449C251.056,449 269,431.056 269,409C269,386.944 251.056,369 229,369L206,369L206,326ZM20,140L73,140C78.522,140 83,135.523 83,130L83,100C83,88.972 91.972,80 103,80C114.028,80 123,88.972 123,100L123,130C123,135.523 127.478,140 133,140L186,140L186,183L163,183C140.944,183 123,200.944 123,223C123,245.056 140.944,263 163,263L186,263L186,306L20,306L20,140ZM20,326L186,326L186,379C186,384.523 190.478,389 196,389L229,389C240.028,389 249,397.972 249,409C249,420.028 240.028,429 229,429L196,429C190.478,429 186,433.477 186,439L186,492L20,492L20,326Z" style="fill:rgb(33,119,186);fill-rule:nonzero;"/>
                    <path d="M502,0L316,0C310.478,0 306,4.477 306,10L306,63L286,63C263.944,63 246,80.944 246,103C246,125.056 263.944,143 286,143L306,143L306,196C306,201.523 310.478,206 316,206L379,206C384.522,206 389,201.523 389,196L389,163C389,151.972 397.972,143 409,143C420.028,143 429,151.972 429,163L429,196C429,201.523 433.478,206 439,206L502,206C507.522,206 512,201.523 512,196L512,10C512,4.477 507.522,0 502,0Z" style="fill:rgb(33,119,186);fill-rule:nonzero;"/>
                </g>
            </g>
        </g>
    </g>
</svg>
