<?xml version="1.0" encoding="UTF-8" standalone="no"?>
<!DOCTYPE svg PUBLIC "-//W3C//DTD SVG 1.1//EN" "http://www.w3.org/Graphics/SVG/1.1/DTD/svg11.dtd">
<svg width="100%" height="100%" viewBox="0 0 121 121" version="1.1" xmlns="http://www.w3.org/2000/svg" xmlns:xlink="http://www.w3.org/1999/xlink" xml:space="preserve" xmlns:serif="http://www.serif.com/" style="fill-rule:evenodd;clip-rule:evenodd;stroke-linejoin:round;stroke-miterlimit:2;">
    <g transform="matrix(1,0,0,1,-6835.94,-1259.24)">
        <g transform="matrix(8.66029,0,0,8.66029,-884.099,258.001)">
            <g transform="matrix(0.0271048,0,0,0.0271048,891.43,115.613)">
                <g>
                    <path d="M125.613,482.444L169.998,482.444C195.728,482.444 195.766,442.356 169.998,442.356L125.613,442.356C99.884,442.356 99.846,482.444 125.613,482.444ZM125.613,457.356L169.998,457.356C176.518,457.356 176.518,467.444 169.998,467.444L125.613,467.444C119.094,467.444 119.094,457.356 125.613,457.356Z" style="fill:rgb(33,119,186);fill-rule:nonzero;"/>
                    <path d="M506.429,331.796C503.401,326.016 501.207,319.684 499.717,313.329C492.403,282.735 481.291,253.095 466.694,225.231L442.287,178.645C428.471,152.271 387.696,156.656 379.998,185.583C361.739,179.014 341.127,189.811 336.134,208.563C321.039,203.131 303.608,209.529 295.605,223.412L295.605,29.303C295.604,13.146 282.459,-0 266.3,-0L91.58,-0C81.883,-0 81.883,15 91.58,15L266.3,15C274.187,15 280.604,21.416 280.604,29.303L280.604,51.223L15.007,51.223L15.007,29.303C15.007,21.416 21.423,15 29.31,15L49.581,15C59.278,15 59.278,-0 49.581,-0L29.31,-0C13.153,-0 0.007,13.146 0.007,29.303L0.007,482.697C0.007,498.854 13.153,512 29.31,512L266.3,512C282.458,512 295.604,498.854 295.604,482.697L295.604,390.167L322.405,403.423C329.028,406.699 334.471,412.153 337.733,418.783C349.639,442.978 380.155,453.009 404.125,440.45L448.81,417.04C457.4,412.54 450.439,399.254 441.849,403.753L397.164,427.163C380.566,435.863 359.466,428.973 351.192,412.16C346.481,402.587 338.62,394.709 329.055,389.977L215.322,333.721C193.961,323.346 209.409,289.835 231.103,299.953L272.399,321.692C278.77,325.046 285.877,317.954 282.536,311.576L210.797,174.644C199.017,152.498 230.564,132.056 242.597,155.028L293.305,251.816L306.55,277.098C310.922,285.447 324.325,278.705 319.837,270.137L306.942,245.524C301.72,228.123 323.203,214.093 337.03,226.224L351.379,253.612C355.751,261.961 369.154,255.219 364.666,246.651L350.076,218.803C348.711,202.804 368.303,192.508 380.688,203.061L395.13,230.629C399.502,238.978 412.905,232.236 408.417,223.668L393.972,196.096C392.007,176.461 419.642,167.744 428.998,185.605L453.405,232.191C467.427,258.956 478.1,287.428 485.127,316.813C486.832,324.436 489.515,331.834 493.141,338.755C501.783,355.249 495.393,375.698 478.9,384.34C470.311,388.842 477.273,402.128 485.861,397.627C509.682,385.148 518.909,355.616 506.429,331.796ZM280.604,482.697C280.604,490.584 274.187,497 266.3,497L29.31,497C21.423,497 15.007,490.584 15.007,482.697L15.007,427.708L280.604,427.708L280.604,482.697ZM247.305,137.564C244.035,134.909 240.262,132.867 236.12,131.573C212.096,124.066 187.901,146.096 193.189,170.698L50.805,170.698C49.426,170.698 48.305,169.577 48.305,168.198L48.305,114.6C48.305,113.221 49.426,112.1 50.805,112.1L244.805,112.1C246.184,112.1 247.305,113.221 247.305,114.6L247.305,137.564ZM280.604,195.252L262.305,160.325L262.305,114.6C262.305,104.951 254.454,97.1 244.805,97.1L50.805,97.1C41.156,97.1 33.305,104.951 33.305,114.6L33.305,168.199C33.305,177.848 41.156,185.699 50.805,185.699L199.653,185.699L258.07,297.2L237.944,286.605C237.855,286.558 237.764,286.512 237.673,286.469C234.693,285.051 231.576,284.095 228.405,283.597C225.043,242.062 190.191,209.285 147.806,209.285C103.203,209.285 66.916,245.572 66.916,290.175C66.916,334.778 103.203,371.065 147.806,371.065C170.176,371.065 191.152,361.994 206.39,345.955C230.184,359.667 255.985,370.57 280.604,382.747L280.604,412.707L15.007,412.707L15.007,66.223L280.604,66.223L280.604,195.252Z" style="fill:rgb(33,119,186);fill-rule:nonzero;"/>
                    <path d="M180.696,257.79L131.837,306.65L114.916,289.728C108.057,282.874 97.452,293.477 104.309,300.335L126.534,322.56C130.07,325.488 133.606,325.488 137.141,322.56L191.304,268.397C198.16,261.539 187.555,250.936 180.696,257.79Z" style="fill:white;fill-rule:nonzero;"/>
                </g>
            </g>
        </g>
    </g>
</svg>
