<?xml version="1.0" encoding="UTF-8" standalone="no"?>
<!DOCTYPE svg PUBLIC "-//W3C//DTD SVG 1.1//EN" "http://www.w3.org/Graphics/SVG/1.1/DTD/svg11.dtd">
<svg width="100%" height="100%" viewBox="0 0 500 500" version="1.1" xmlns="http://www.w3.org/2000/svg" xmlns:xlink="http://www.w3.org/1999/xlink" xml:space="preserve" xmlns:serif="http://www.serif.com/" style="fill-rule:evenodd;clip-rule:evenodd;stroke-linejoin:round;stroke-miterlimit:2;">
    <g transform="matrix(7.99722,0,0,7.99722,-5365.99,-1404.24)">
        <g transform="matrix(0.122113,0,0,0.122113,670.982,175.591)">
            <g>
                <path d="M304,96L112,96C103.168,96 96,103.168 96,112C96,120.832 103.168,128 112,128L304,128C312.832,128 320,120.832 320,112C320,103.168 312.832,96 304,96Z" style="fill:rgb(33,119,186);fill-rule:nonzero;"/>
            </g>
        </g>
        <g transform="matrix(0.122113,0,0,0.122113,670.982,175.591)">
            <g>
                <path d="M240,160L112,160C103.168,160 96,167.168 96,176C96,184.832 103.168,192 112,192L240,192C248.832,192 256,184.832 256,176C256,167.168 248.832,160 240,160Z" style="fill:rgb(33,119,186);fill-rule:nonzero;"/>
            </g>
        </g>
        <g transform="matrix(0.122113,0,0,0.122113,670.982,175.591)">
            <g>
                <path d="M352,0L64,0C28.704,0 0,28.704 0,64L0,384C0,390.208 3.584,395.872 9.216,398.496C11.36,399.488 13.696,400 16,400C19.68,400 23.328,398.72 26.24,396.288L117.792,320L352,320C387.296,320 416,291.296 416,256L416,64C416,28.704 387.296,0 352,0ZM384,256C384,273.632 369.664,288 352,288L112,288C108.256,288 104.64,289.312 101.76,291.712L32,349.856L32,64C32,46.368 46.336,32 64,32L352,32C369.664,32 384,46.368 384,64L384,256Z" style="fill:rgb(33,119,186);fill-rule:nonzero;"/>
            </g>
        </g>
        <g transform="matrix(0.122113,0,0,0.122113,670.982,175.591)">
            <g>
                <path d="M448,128C439.168,128 432,135.168 432,144C432,152.832 439.168,160 448,160C465.664,160 480,174.368 480,192L480,462.688L425.984,419.488C423.168,417.248 419.616,416 416,416L192,416C174.336,416 160,401.632 160,384L160,368C160,359.168 152.832,352 144,352C135.168,352 128,359.168 128,368L128,384C128,419.296 156.704,448 192,448L410.368,448L485.984,508.512C488.896,510.816 492.448,512 496,512C498.336,512 500.704,511.488 502.944,510.432C508.48,507.744 512,502.144 512,496L512,192C512,156.704 483.296,128 448,128Z" style="fill:rgb(33,119,186);fill-rule:nonzero;"/>
            </g>
        </g>
    </g>
</svg>
