<?xml version="1.0" encoding="UTF-8" standalone="no"?>
<!DOCTYPE svg PUBLIC "-//W3C//DTD SVG 1.1//EN" "http://www.w3.org/Graphics/SVG/1.1/DTD/svg11.dtd">
<svg width="100%" height="100%" viewBox="0 0 120 120" version="1.1" xmlns="http://www.w3.org/2000/svg" xmlns:xlink="http://www.w3.org/1999/xlink" xml:space="preserve" xmlns:serif="http://www.serif.com/" style="fill-rule:evenodd;clip-rule:evenodd;stroke-linejoin:round;stroke-miterlimit:2;">
    <g transform="matrix(1,0,0,1,-6364.56,-1260.28)">
        <g transform="matrix(8.66029,0,0,8.66029,-1356.53,258.001)">
            <g id="Icon" transform="matrix(0.0299942,0,0,0.0299942,890.751,114.933)">
                <g>
                    <path d="M224,432.277L62.933,432.277C61.803,432.277 60.715,431.808 59.925,431.019C59.115,430.208 58.667,429.141 58.667,428.011L58.667,397.077C58.667,379.349 71.317,363.733 90.816,350.464C125.632,326.699 181.973,311.723 245.333,311.723C255.787,311.723 266.048,312.149 276.075,312.939C284.864,313.643 292.587,307.072 293.291,298.261C293.973,289.451 287.403,281.749 278.592,281.045C267.755,280.171 256.661,279.723 245.333,279.723C174.464,279.723 111.723,297.451 72.768,324.011C43.051,344.277 26.667,370.027 26.667,397.056L26.667,428.011C26.667,437.611 30.485,446.848 37.291,453.653C44.096,460.437 53.312,464.277 62.933,464.256C105.941,464.277 224,464.277 224,464.277C232.832,464.277 240,457.088 240,448.277C240,439.445 232.832,432.277 224,432.277Z" style="fill:rgb(33,119,186);"/>
                    <path d="M245.333,26.667C180.565,26.667 128,79.232 128,144C128,208.768 180.565,261.333 245.333,261.333C310.101,261.333 362.667,208.768 362.667,144C362.667,79.232 310.101,26.667 245.333,26.667ZM245.333,58.667C292.437,58.667 330.667,96.896 330.667,144C330.667,191.104 292.437,229.333 245.333,229.333C198.229,229.333 160,191.104 160,144C160,96.896 198.229,58.667 245.333,58.667Z" style="fill:rgb(33,119,186);"/>
                    <path d="M387.243,431.104C413.099,434.987 440.427,426.965 460.331,407.061C493.653,373.739 493.653,319.637 460.331,286.336C427.029,253.013 372.928,253.013 339.605,286.336C319.701,306.24 311.68,333.568 315.563,359.445C315.563,359.424 266.027,408.96 266.027,408.96C263.019,411.968 261.333,416.043 261.333,420.288L261.333,469.333C261.333,478.165 268.501,485.333 277.333,485.333L326.379,485.333C330.624,485.333 334.699,483.648 337.707,480.64L387.243,431.104Z" style="fill:rgb(33,119,186);"/>
                    <path d="M383.616,363.051C374.592,354.027 374.592,339.371 383.616,330.347C392.64,321.323 407.296,321.323 416.32,330.347C425.344,339.371 425.344,354.027 416.32,363.051C407.296,372.075 392.64,372.075 383.616,363.051Z" style="fill:white;"/>
                </g>
            </g>
        </g>
    </g>
</svg>
