<?xml version="1.0" encoding="UTF-8" standalone="no"?>
<svg width="100%" height="100%" viewBox="0 0 500 500" version="1.1"  style="fill-rule:evenodd;clip-rule:evenodd;stroke-linejoin:round;stroke-miterlimit:2;">
    <g transform="matrix(0.976562,0,0,0.976562,0,0)">
        <g>
            <g>
                <path d="M219.357,283.9C219.357,256.646 197.184,234.472 169.929,234.472C142.675,234.472 120.501,256.646 120.501,283.9L150.5,283.9C150.5,273.188 159.217,264.472 169.929,264.472C180.642,264.472 189.357,273.188 189.357,283.9L219.357,283.9Z" style="fill:rgb(33,119,186);fill-rule:nonzero;"/>
                <path d="M342.071,234.471C314.816,234.471 292.643,256.645 292.643,283.899L322.643,283.899C322.643,273.187 331.358,264.471 342.071,264.471C352.783,264.471 361.5,273.187 361.5,283.899L391.499,283.899C391.499,256.645 369.326,234.471 342.071,234.471Z" style="fill:rgb(33,119,186);fill-rule:nonzero;"/>
                <path d="M256,371.68C237.034,371.68 219.25,361.509 209.587,345.135L183.749,360.379C198.782,385.854 226.467,401.679 255.999,401.679C285.531,401.679 313.216,385.854 328.249,360.379L302.411,345.134C292.75,361.508 274.965,371.68 256,371.68Z" style="fill:rgb(33,119,186);fill-rule:nonzero;"/>
                <path d="M492.481,230.768C482.927,221.225 470.929,214.915 457.906,212.444C429.783,125.537 348.2,65.7 256,65.7L245.943,65.7C221.792,65.7 202.143,46.05 202.143,21.9L172.143,21.9C172.143,38.288 177.519,53.44 186.591,65.7L177.086,65.7C152.935,65.7 133.287,46.05 133.287,21.9L103.287,21.9C103.287,54.495 124.535,82.203 153.9,91.948C107.457,117.481 71.053,160.036 54.095,212.444C41.072,214.915 29.071,221.227 19.509,230.779C6.928,243.373 0,260.107 0,277.9C0,295.474 6.78,312.055 19.091,324.589C28.713,334.384 40.864,340.848 54.095,343.357C82.216,430.264 163.799,490.1 256,490.1C348.201,490.1 429.783,430.264 457.905,343.357C471.136,340.848 483.287,334.384 492.909,324.589C505.22,312.055 512,295.474 512,277.9C512,260.107 505.072,243.373 492.481,230.768ZM446.087,314.521L434.83,314.735L431.89,325.603C410.475,404.792 338.147,460.099 255.999,460.099C173.851,460.099 101.524,404.793 80.11,325.603L77.17,314.735L65.913,314.521C46.11,314.147 29.999,297.719 29.999,277.9C29.999,268.114 33.811,258.909 40.72,251.992C47.458,245.261 56.405,241.455 65.91,241.277L77.169,241.066L80.109,230.195C101.524,151.007 173.852,95.701 256,95.701C283.113,95.701 305.171,117.758 305.171,144.871C305.171,171.984 283.113,194.043 256,194.043C228.887,194.043 206.829,171.985 206.829,144.872L176.829,144.872C176.829,188.528 212.345,224.043 256,224.043C299.655,224.043 335.171,188.528 335.171,144.872C335.171,132.449 332.287,120.69 327.165,110.215C377.48,131.617 416.998,175.128 431.89,230.196L434.83,241.067L446.089,241.278C455.595,241.456 464.541,245.262 471.268,251.981C478.189,258.91 482.001,268.115 482.001,277.901C482,297.72 465.889,314.148 446.087,314.521Z" style="fill:rgb(33,119,186);fill-rule:nonzero;"/>
            </g>
        </g>
    </g>
</svg>
