<?xml version="1.0" encoding="UTF-8" standalone="no"?>
<!DOCTYPE svg PUBLIC "-//W3C//DTD SVG 1.1//EN" "http://www.w3.org/Graphics/SVG/1.1/DTD/svg11.dtd">
<svg width="100%" height="100%" viewBox="0 0 120 121" version="1.1" xmlns="http://www.w3.org/2000/svg" xmlns:xlink="http://www.w3.org/1999/xlink" xml:space="preserve" xmlns:serif="http://www.serif.com/" style="fill-rule:evenodd;clip-rule:evenodd;stroke-linejoin:round;stroke-miterlimit:2;">
    <g transform="matrix(1,0,0,1,-6363.96,-1489.34)">
        <g transform="matrix(8.66029,0,0,8.66029,-1356.53,488.325)">
            <g transform="matrix(0.234773,0,0,0.234773,680.979,94.0909)">
                <g transform="matrix(0.11547,0,0,0.11547,896.51,91.5609)">
                    <path d="M506.607,104.396L406.611,4.394C403.798,1.58 399.982,0 396.004,0L166,0C141.187,0 121,20.187 121,45L121,242.838C53.594,250.324 1,307.631 1,377C1,451.439 61.561,512 136,512L466,512C490.813,512 511,491.813 511,467L511,115.003C511,111.024 509.42,107.21 506.607,104.396ZM411,51.213L443.59,83.804L459.786,100L411,100L411,51.213ZM466,482L220.749,482C247.712,460.195 266.138,428.241 270.163,392L426,392C434.284,392 441,385.284 441,377C441,368.716 434.284,362 426,362L270.162,362C267.716,339.98 259.958,319.541 248.194,302L426,302C434.284,302 441,295.284 441,287C441,278.716 434.284,272 426,272L220.749,272C201.228,256.214 177.238,245.752 151,242.838L151,45C151,36.729 157.729,30 166,30L381,30L381,115C381,123.284 387.716,130 396,130L481,130L481,467C481,475.271 474.271,482 466,482Z" style="fill:rgb(33,119,186);fill-rule:nonzero;"/>
                </g>
                <g transform="matrix(0.11547,0,0,0.11547,896.51,91.5609)">
                    <path d="M426,182L206,182C197.716,182 191,188.716 191,197C191,205.284 197.716,212 206,212L426,212C434.284,212 441,205.284 441,197C441,188.716 434.284,182 426,182Z" style="fill:rgb(33,119,186);fill-rule:nonzero;"/>
                </g>
                <g transform="matrix(0.11547,0,0,0.11547,896.51,91.5609)">
                    <path d="M195.606,339.394C189.749,333.537 180.251,333.537 174.393,339.394L115,398.787L95.606,379.393C89.749,373.536 80.251,373.536 74.393,379.393C68.535,385.25 68.535,394.748 74.393,400.606L104.393,430.606C107.322,433.535 111.161,435 115,435C118.839,435 122.678,433.535 125.606,430.606L195.606,360.606C201.464,354.749 201.464,345.251 195.606,339.394Z" style="fill:white;fill-rule:nonzero;"/>
                </g>
            </g>
        </g>
    </g>
</svg>
