<?xml version="1.0" encoding="UTF-8" standalone="no"?>
<!DOCTYPE svg PUBLIC "-//W3C//DTD SVG 1.1//EN" "http://www.w3.org/Graphics/SVG/1.1/DTD/svg11.dtd">
<svg width="100%" height="100%" viewBox="0 0 121 121" version="1.1" xmlns="http://www.w3.org/2000/svg" xmlns:xlink="http://www.w3.org/1999/xlink" xml:space="preserve" xmlns:serif="http://www.serif.com/" style="fill-rule:evenodd;clip-rule:evenodd;stroke-linejoin:round;stroke-miterlimit:2;">
    <g transform="matrix(1,0,0,1,-6835.94,-1489.58)">
        <g transform="matrix(8.66029,0,0,8.66029,-884.099,488.325)">
            <g transform="matrix(0.0271041,0,0,0.0271041,891.43,115.613)">
                <g>
                    <g>
                        <path d="M494.716,317.785C492.539,299.947 485.465,285.967 469.528,276.231C457.982,269.161 448.633,268.061 404.416,257.052L404.416,254.741L448.552,254.741C459.254,254.741 467.977,246.101 468.109,235.429C473.68,140.959 474.52,130.136 474.14,125.671C474.14,121.528 470.783,118.171 466.64,118.171C462.497,118.171 459.14,121.528 459.14,125.671L459.14,132.786C452.849,239.479 453.111,234.749 453.111,235.181C453.111,237.652 451.023,239.74 448.552,239.74L404.416,239.74L404.416,237.799C406.835,236.182 424.76,228.279 437.775,207.193C452.19,183.932 450.182,164.271 450.208,145.232C450.208,137.603 444.257,131.399 436.659,131.108L436.658,131.108C381.038,128.982 352.498,97.455 345.074,87.842C342.795,84.89 339.348,83.124 335.619,82.996C331.905,82.883 328.317,84.396 325.836,87.189C314.164,100.328 300.962,104.485 294.131,105.793C287.942,106.979 283.449,112.421 283.449,118.734C283.476,165.875 283.391,163.278 283.517,166.594C283.718,195.871 303.422,225.297 328.948,237.652L328.948,239.737L284.177,239.737C281.706,239.737 279.619,237.649 279.619,235.178C279.619,234.741 279.87,239.285 273.577,132.562C273.568,132.425 273.556,132.285 273.541,132.15C273.452,131.371 265.167,54.107 308.547,44.574C310.73,44.095 312.586,42.665 313.608,40.677C313.789,40.327 332.291,5.78 391.976,17.403C415.732,21.933 451.279,50.222 457.955,91.856C458.61,95.945 462.452,98.722 466.548,98.074C470.638,97.419 473.422,93.571 472.766,89.481C469.878,69.76 460.061,48.942 445.217,33.144L444.684,32.574C429.79,16.8 407.624,5.168 394.838,2.679C374.719,-1.237 345.663,-2.715 321.472,12.486C311.054,19.03 304.98,26.581 302.169,30.72C280.038,37.004 265.54,56.738 260.148,88.026C256.294,110.384 258.344,131.134 258.616,133.642C265.641,242.13 263.232,238.07 267.299,245.02C245.986,241.593 224.293,247.685 207.854,263.225L201.298,261.592C201.117,261.505 184.613,253.606 183.057,252.862L183.057,237.639C220.205,219.209 226.149,182.34 226.508,181.662C227.81,175.798 228.523,169.595 228.523,163.368L228.523,163.295C242.067,160.344 252.135,149.598 252.135,136.825C252.135,131.534 250.402,126.594 247.415,122.407C247.538,102.682 248.096,91.079 243.872,75.523C242.791,72.77 239.251,55.347 223.552,36.62C223.528,36.59 223.502,36.559 223.478,36.53C194.464,2.022 144.424,-11.15 99.539,10.722C65.482,27.704 42.865,62.73 42.865,102.286C42.866,108.869 42.863,121.61 42.868,122.408C31.718,138.035 41.238,158.827 61.765,163.297C62.45,197.304 80.742,224.138 107.59,237.817L107.59,252.691L88.6,261.781C67.911,267.573 51.859,269.087 39.572,278.198C24.689,289.561 19.474,299.856 17.282,317.86C-0.51,478.793 -0.095,469.022 0.027,476.187C-0.19,495.3 13.17,511.975 35.276,511.975L100.841,511.974C104.984,511.974 108.341,508.617 108.341,504.474C108.341,500.331 104.984,496.974 100.841,496.974L72.66,496.974L80.097,356.305C80.316,352.169 77.14,348.639 73.003,348.42C68.882,348.19 65.336,351.377 65.118,355.514L63.554,385.1L25.297,381.087L25.422,379.973C33.143,318.832 30.368,309.568 40.687,297.298L40.773,297.195C53.338,282.358 73.26,282.03 88.685,277.216L111.741,306.73C117.254,313.79 127.724,314.422 134.047,308.053L137.643,304.429L137.643,340.723C137.643,344.866 141,348.223 145.143,348.223C149.286,348.223 152.643,344.866 152.643,340.723L152.643,304.43L156.238,308.053C159.042,310.878 162.852,312.454 166.808,312.454C167.101,312.454 167.396,312.445 167.69,312.429C171.957,312.175 175.913,310.099 178.544,306.731L189.083,293.241C184.713,307.318 186.247,317.893 185.924,323.872C171.547,337.342 178.879,359.438 199.184,363.945C202.075,380.866 212.345,396.039 228.58,404.928L228.58,414.049C202.122,421.175 181.314,421.468 171.898,443.905C171.494,444.869 171.222,445.672 170.936,446.595C170.552,447.811 170.192,449.241 169.995,450.189C168.84,455.781 168.795,459.318 164.389,496.974L135.841,496.974C131.698,496.974 128.341,500.331 128.341,504.474C128.341,508.617 131.698,511.974 135.841,511.974L171.175,511.974C171.181,511.974 171.187,511.975 171.192,511.975C171.199,511.975 171.206,511.974 171.213,511.974L340.798,511.974C340.798,511.974 340.812,511.975 340.819,511.975C340.819,511.975 340.831,511.974 340.836,511.974L372.579,511.974C376.722,511.974 380.079,508.617 380.079,504.474C380.079,500.331 376.722,496.974 372.579,496.974L347.62,496.974C343.548,467.063 343.935,454.212 340.539,444.998C336.025,432.685 325.039,424.451 313.138,421.443L283.43,414.047L283.43,404.796C299.052,396.231 309.738,381.037 312.587,363.943C312.69,363.885 330.049,360.714 332.977,344.338C333.811,339.774 333.177,334.953 330.879,330.497C345.158,327.592 359.119,317.038 366.665,310.497C404.889,343.653 439.218,339.501 442.02,281.87C447.52,283.577 473.506,287.556 478.7,312.681C479.09,314.565 479.538,317.238 479.818,319.524L486.704,381.066L448.747,385.048L447.186,355.511C446.968,351.374 443.389,348.178 439.301,348.417C435.164,348.636 431.988,352.166 432.207,356.302L439.643,496.971L407.577,496.971C403.434,496.971 400.077,500.328 400.077,504.471C400.077,508.614 403.434,511.971 407.577,511.971L476.726,511.972C486.829,511.972 495.502,508.593 501.809,502.2C508.293,495.628 512.092,485.898 511.976,476.162C512.074,469.844 512.589,478.743 494.716,317.785ZM62.301,400.051L57.432,496.974L35.275,496.974C22.231,496.974 15.313,488.437 15.025,476.044C14.935,470.734 15.22,472.531 23.629,395.993L62.301,400.051ZM228.522,147.64L228.522,126.015C239.976,130.74 239.978,142.914 228.522,147.64ZM61.763,147.642C50.302,142.916 50.301,130.739 61.763,126.013L61.763,147.642ZM68.246,109.573C64.592,109.677 61.098,110.335 57.865,111.454C57.96,103.605 57.381,96.494 59.416,85.845C60.285,83.52 63.59,58.003 87.187,37.033L87.186,37.033C90.345,34.587 95.534,29.13 108.913,22.861C137.743,9.695 173.012,11.768 203.095,37.034C223.44,55.108 227.89,75.608 229.384,79.407C233.57,94.844 232.103,105.75 232.418,111.455C229.186,110.335 225.693,109.678 222.041,109.574C220.139,108.499 218.379,107.01 216.994,105.485C206.768,93.703 215.442,84.579 204.473,75.425C196.739,68.971 189.333,71.437 175.646,73.227C111.901,80.1 99.11,64.329 85.813,75.425C81.891,78.698 79.422,83.431 79.254,89.302C78.653,105.227 68.896,108.84 68.246,109.573ZM76.763,163.37L76.763,121.955C82.44,117.864 86.615,114.548 90.35,106.623C92.493,102.094 94.058,96.383 94.269,89.301C94.318,87.359 96.144,85.875 98.133,86.193C177.331,96.737 195.774,79.733 196.016,89.297C196.492,106.065 205.709,115.287 205.857,115.535C208.61,118.575 210.376,119.688 213.519,121.954C213.52,129.754 213.517,155.834 213.522,156.662C213.026,158.828 218.85,201.399 176.502,224.148L176.503,224.148C176.397,224.192 165.471,230.469 149.67,231.581C145.7,231.841 141.792,231.67 141.893,231.672C104.785,229.941 76.763,199.165 76.763,163.37ZM123.488,297.401L103.293,271.549L113.452,266.687L134.397,286.408L123.488,297.401ZM145.143,275.923L122.589,254.688L122.589,243.648C137.544,247.854 153.268,247.678 167.877,243.596L167.877,254.517L145.143,275.923ZM166.798,297.401L155.89,286.408L176.955,266.573L187.091,271.425L166.798,297.401ZM198.377,347.745C191.533,343.835 192.118,336.758 198.377,333.199L198.377,347.745ZM316.955,210.148C293.224,183.78 298.469,159.994 298.447,120.224C307.046,118.351 321.735,113.235 335.051,99.324C345.709,112.184 377.495,143.558 435.206,146.065C435.174,166 435.262,162.442 435.139,166.467L435.136,166.444C434.463,169.138 435.842,193.909 410.625,215.876C410.522,215.96 409.656,216.666 409.76,216.582C386.289,235.543 353.654,236.366 329.767,220.834C328.257,219.856 318.651,211.772 316.955,210.148ZM290.023,431.149L290.343,431.229C305.493,435.365 310.59,435.373 317.117,439.282C330.782,447.47 326.927,457.571 332.442,496.975L312.479,496.975L311.591,480.787C311.364,476.65 307.828,473.476 303.692,473.71C299.556,473.937 296.387,477.474 296.615,481.609L297.458,496.974L214.757,496.974L215.6,481.609C215.828,477.473 212.659,473.936 208.523,473.71C204.364,473.486 200.85,476.651 200.624,480.787L199.736,496.975L179.57,496.975C184.539,454.345 182.436,446.746 194.894,439.282C201.119,435.549 205.165,435.606 221.986,431.149C230.555,440.843 242.925,446.5 256.005,446.5C269.085,446.5 281.455,440.844 290.023,431.149ZM243.578,410.494C246.541,411.141 249.776,411.592 253.143,411.749C253.325,411.758 253.504,411.764 253.685,411.769L254.22,411.787C259.64,411.931 264.904,411.322 268.43,410.44C268.801,413.322 266.785,421.704 273.056,426.249C262.747,433.243 249.28,433.256 238.951,426.249C245.204,421.717 243.221,413.248 243.578,410.494ZM298.314,356.748C298.283,357.297 298.246,357.815 298.202,358.314C296.774,373.643 287.184,386.596 273.928,392.805C273.59,392.847 250.976,404.949 229.205,387.392C228.964,387.057 216.077,378.035 213.732,359.833C213.095,354.945 213.503,351.043 213.377,330.201C246.308,337.013 269.261,323.787 279.304,310.672C285.963,320.477 293.544,324.69 298.391,326.477C298.377,358.585 298.437,354.518 298.314,356.748ZM310.845,316.662C308.325,313.562 305.354,312.985 304.165,312.607C300.86,311.55 294.513,308.234 289.125,297.895C284.913,289.815 273.334,290.118 269.468,298.25C265.081,307.475 245.063,323.521 211.183,314.255C207.903,313.362 204.361,314.11 201.668,316.568C201.417,316.602 201.17,316.646 200.922,316.686C200.942,311.761 200.981,311.572 200.977,311.673C202.901,265.901 257.59,242.2 292.293,272.883C292.288,272.922 292.38,272.917 292.376,272.956C301.242,280.839 307.302,291.031 309.868,303.704C311.128,310.301 310.79,315.63 310.845,316.662ZM303.964,263.273C300.189,259.696 297.179,257.376 292.977,254.743L328.948,254.743L328.948,257.054L303.964,263.273ZM313.392,347.756L313.392,333.2C316.064,334.728 318.33,337.376 318.33,340.478C318.33,344.372 315.376,346.268 313.392,347.756ZM325.845,316.185C325.693,315.048 326.663,304.596 321.968,291.053C329.859,297.813 339.038,302.69 348.935,305.342C341.779,310.481 333.143,315.387 325.845,316.185ZM325.726,273.313L335.458,270.891C335.899,270.781 336.329,270.631 336.743,270.444C341.119,268.46 343.946,263.414 343.946,257.589L343.947,243.556C357.517,247.408 371.852,248.155 389.415,243.639L389.415,257.589C389.415,263.415 392.243,268.462 396.62,270.444C397.034,270.632 397.464,270.781 397.904,270.891L407.611,273.308C385.605,299.057 347.779,299.111 325.726,273.313ZM414.422,315.394C405.73,319.02 392.03,310.875 384.302,305.287C400.226,300.872 413.768,291.211 423.499,277.263L427.157,278.174C426.532,299.072 422.072,312.204 414.422,315.394ZM491.133,491.668C483.181,499.727 472.387,496.016 454.664,496.974L449.54,400.049L488.372,395.975L496.822,471.491C497.454,478.949 496.431,486.298 491.133,491.668Z" style="fill:rgb(33,119,186);fill-rule:nonzero;"/>
                    </g>
                </g>
            </g>
        </g>
    </g>
</svg>
