<?xml version="1.0" encoding="UTF-8" standalone="no"?>
<!DOCTYPE svg PUBLIC "-//W3C//DTD SVG 1.1//EN" "http://www.w3.org/Graphics/SVG/1.1/DTD/svg11.dtd">
<svg width="100%" height="100%" viewBox="0 0 120 120" version="1.1" xmlns="http://www.w3.org/2000/svg" xmlns:xlink="http://www.w3.org/1999/xlink" xml:space="preserve" xmlns:serif="http://www.serif.com/" style="fill-rule:evenodd;clip-rule:evenodd;stroke-linejoin:round;stroke-miterlimit:2;">
    <g transform="matrix(1,0,0,1,-6363.74,-1029.19)">
        <g transform="matrix(8.66029,0,0,8.66029,-1356.53,27.6761)">
            <g transform="matrix(0.0270521,0,0,0.0270521,891.457,115.642)">
                <g>
                    <path d="M452.159,68.355L184.114,68.355C169.982,18.502 118.112,-10.455 68.259,3.677C18.406,17.81 -10.551,69.679 3.58,119.532C17.712,169.385 69.582,198.342 119.435,184.21C150.755,175.331 175.235,150.852 184.113,119.532L443.628,119.532C453.049,119.532 460.687,127.169 460.687,136.591L460.687,213.355C460.687,222.777 453.049,230.414 443.628,230.414L426.356,230.414C424.734,219.516 414.585,211.996 403.687,213.617C400.199,214.136 396.911,215.57 394.158,217.773L365.943,240.282C357.264,247.206 355.84,259.856 362.765,268.535C363.703,269.709 364.768,270.776 365.943,271.712L394.141,294.204C402.735,301.099 415.292,299.72 422.187,291.126C424.396,288.373 425.835,285.081 426.357,281.589L452.158,281.589C485.114,281.547 511.821,254.84 511.863,221.883L511.863,128.061C511.822,95.104 485.115,68.397 452.159,68.355Z" style="fill:rgb(33,119,186);"/>
                    <path d="M494.805,221.884C494.777,245.425 475.7,264.503 452.158,264.532L418.04,264.532C413.33,264.532 409.511,268.351 409.511,273.061L409.511,278.605C409.547,279.765 408.872,280.831 407.805,281.292C406.801,281.824 405.569,281.663 404.735,280.891L376.486,258.356C375.183,257.315 374.971,255.415 376.013,254.112C376.153,253.937 376.311,253.78 376.486,253.64L404.752,231.079C405.589,230.338 406.798,230.192 407.788,230.712C408.854,231.173 409.53,232.238 409.494,233.399L409.494,238.943C409.494,243.654 413.314,247.472 418.024,247.472L443.612,247.472C462.454,247.472 477.729,232.198 477.729,213.355L477.729,136.591C477.729,117.748 462.454,102.474 443.612,102.474L187.312,102.474C187.568,99.659 187.747,96.827 187.747,93.945C187.747,91.062 187.568,88.23 187.312,85.415L452.159,85.415C475.7,85.443 494.777,104.521 494.806,128.063L494.805,221.884Z" style="fill:white;"/>
                    <path d="M51.712,157.991C53.755,145.678 64.383,136.635 76.865,136.591L110.983,136.591C123.464,136.635 134.093,145.678 136.136,157.991C110.545,174.955 77.286,174.955 51.695,157.991L51.712,157.991Z" style="fill:white;"/>
                    <path d="M150.32,145.844C146.094,135.789 138.199,127.72 128.238,123.276C149.207,104.325 150.843,71.964 131.892,50.994C112.941,30.025 80.58,28.389 59.61,47.34C38.641,66.291 37.005,98.652 55.956,119.622C57.112,120.901 58.332,122.12 59.61,123.276C49.651,127.726 41.762,135.802 37.545,145.861C8.777,114.72 10.702,66.153 41.845,37.386C72.987,8.618 121.553,10.543 150.32,41.685C177.49,71.096 177.49,116.45 150.32,145.861L150.32,145.844Z" style="fill:white;"/>
                    <path d="M93.925,119.532C75.082,119.532 59.807,104.257 59.807,85.414C59.807,66.572 75.081,51.296 93.925,51.296C112.768,51.296 128.042,66.571 128.042,85.413C128.042,104.256 112.767,119.532 93.925,119.532Z" style="fill:white;"/>
                    <path d="M59.806,443.649L85.607,443.649C87.194,454.533 97.303,462.071 108.187,460.485C111.71,459.971 115.032,458.523 117.805,456.29L146.029,433.772C154.706,426.86 156.137,414.222 149.225,405.545C148.283,404.363 147.211,403.291 146.029,402.35L117.831,379.858C109.24,372.959 96.683,374.331 89.784,382.922C87.57,385.679 86.129,388.975 85.607,392.473L68.335,392.473C58.914,392.473 51.276,384.836 51.276,375.414L51.276,298.65C51.276,289.228 58.914,281.591 68.335,281.591L128.041,281.591C142.173,281.591 153.629,270.134 153.629,256.002C153.629,241.871 142.172,230.414 128.041,230.414L59.806,230.414C26.85,230.456 0.143,257.163 0.101,290.12L0.101,383.943C0.143,416.9 26.85,443.606 59.806,443.649ZM17.16,290.12C17.188,266.579 36.265,247.501 59.807,247.472L128.043,247.472C132.754,247.472 136.572,251.291 136.572,256.001C136.572,260.712 132.754,264.531 128.043,264.531L68.336,264.531C49.494,264.531 34.219,279.805 34.219,298.648L34.219,375.412C34.219,394.255 49.494,409.529 68.336,409.529L93.925,409.529C98.635,409.529 102.454,405.711 102.454,401L102.454,395.456C102.418,394.295 103.093,393.23 104.16,392.769C105.168,392.255 106.388,392.415 107.23,393.17L135.471,415.697C136.776,416.72 137.005,418.607 135.981,419.912C135.832,420.102 135.661,420.272 135.471,420.421L107.205,442.982C106.361,443.709 105.161,443.854 104.169,443.349C103.103,442.888 102.427,441.822 102.463,440.662L102.463,435.118C102.463,430.407 98.643,426.589 93.934,426.589L59.806,426.589C36.265,426.561 17.188,407.483 17.159,383.941L17.159,290.12L17.16,290.12Z" style="fill:rgb(33,119,186);fill-rule:nonzero;"/>
                    <path d="M206.443,294.205C215.017,301.125 227.578,299.784 234.497,291.21C236.735,288.437 238.19,285.115 238.71,281.591L315.687,281.591C329.818,281.591 341.275,270.134 341.275,256.002C341.275,241.871 329.818,230.414 315.687,230.414L238.71,230.414C237.084,219.516 226.932,212 216.034,213.626C212.549,214.146 209.262,215.58 206.511,217.782L178.287,240.291C169.608,247.215 168.185,259.865 175.11,268.544C176.048,269.718 177.113,270.785 178.287,271.721L206.443,294.205ZM188.899,253.631L217.156,231.079C217.651,230.661 218.275,230.425 218.922,230.413C219.362,230.422 219.796,230.527 220.192,230.72C221.261,231.182 221.937,232.251 221.898,233.416L221.898,238.943C221.898,243.654 225.718,247.472 230.427,247.472L315.687,247.472C320.398,247.472 324.216,251.291 324.216,256.001C324.216,260.712 320.397,264.531 315.687,264.531L230.393,264.531C225.683,264.531 221.864,268.35 221.864,273.06L221.864,278.604C221.9,279.764 221.225,280.83 220.158,281.291C219.154,281.823 217.922,281.662 217.088,280.89L188.864,258.372C187.554,257.34 187.329,255.442 188.362,254.132C188.509,253.945 188.678,253.778 188.864,253.631L188.899,253.631Z" style="fill:rgb(33,119,186);fill-rule:nonzero;"/>
                    <path d="M418.04,324.237C374.475,324.328 336.69,354.365 326.776,396.788L305.555,379.857C296.995,372.92 284.431,374.237 277.495,382.797C275.238,385.583 273.772,388.924 273.255,392.472L196.277,392.472C182.145,392.472 170.689,403.929 170.689,418.06C170.689,432.192 182.146,443.649 196.277,443.649L273.255,443.649C274.841,454.533 284.95,462.071 295.834,460.485C299.357,459.971 302.679,458.523 305.453,456.29L326.776,439.334C338.524,489.801 388.96,521.19 439.428,509.441C489.895,497.693 521.284,447.257 509.535,396.789C499.636,354.26 461.706,324.183 418.04,324.237Z" style="fill:rgb(33,119,186);"/>
                    <path d="M418.04,494.825C375.684,494.778 341.351,460.468 341.276,418.111L341.276,418.01C341.304,375.614 375.696,341.268 418.091,341.296C460.487,341.324 494.833,375.716 494.805,418.111C494.777,460.487 460.417,494.825 418.04,494.825Z" style="fill:rgb(33,119,186);"/>
                    <path d="M446.128,386.442L400.982,431.588L389.953,420.559C386.565,417.287 381.166,417.38 377.893,420.768C374.701,424.074 374.701,429.314 377.893,432.62L394.952,449.679C398.283,453.008 403.682,453.008 407.013,449.679L458.189,398.503C461.461,395.114 461.368,389.715 457.98,386.442C454.675,383.249 449.434,383.249 446.128,386.442Z" style="fill:white;"/>
                    <path d="M323.074,420.422L294.809,442.983C293.964,443.71 292.764,443.855 291.772,443.35C290.706,442.889 290.03,441.823 290.066,440.663L290.066,435.119C290.066,430.408 286.246,426.59 281.537,426.59L196.277,426.59C191.566,426.59 187.748,422.77 187.748,418.06C187.748,413.35 191.567,409.531 196.277,409.531L281.571,409.531C286.281,409.531 290.1,405.713 290.1,401.002L290.1,395.458C290.064,394.297 290.739,393.232 291.806,392.771C292.814,392.257 294.034,392.417 294.877,393.172L323.117,415.699C323.834,416.27 324.241,417.145 324.218,418.061C324.234,418.985 323.809,419.862 323.074,420.422Z" style="fill:white;"/>
                </g>
            </g>
        </g>
    </g>
</svg>
