<?xml version="1.0" encoding="UTF-8" standalone="no"?>
<!DOCTYPE svg PUBLIC "-//W3C//DTD SVG 1.1//EN" "http://www.w3.org/Graphics/SVG/1.1/DTD/svg11.dtd">
<svg width="100%" height="100%" viewBox="0 0 500 500" version="1.1" xmlns="http://www.w3.org/2000/svg" xmlns:xlink="http://www.w3.org/1999/xlink" xml:space="preserve" xmlns:serif="http://www.serif.com/" style="fill-rule:evenodd;clip-rule:evenodd;stroke-linejoin:round;stroke-miterlimit:2;">
    <g transform="matrix(1.04034,0,0,1.04034,-16.835,-17.1602)">
        <path d="M475.2,168C443.2,81.6 385.6,20.8 334.4,20.8C326.4,20.8 320,22.4 313.6,24C299.2,28.8 286.4,40 278.4,54.4C182.4,163.2 49.6,212.8 48,212.8C16,224 6.4,275.2 27.2,331.2C44.8,379.2 76.8,409.6 105.6,409.6C108.8,409.6 113.6,409.6 116.8,408C120,406.4 137.6,403.2 169.6,398.4L201.6,465.6C203.2,468.8 206.4,472 211.2,473.6L262.4,491.2C264,491.2 265.6,492.8 267.2,492.8C270.4,492.8 273.6,491.2 276.8,489.6C281.6,486.4 283.2,480 283.2,475.2L272,384C312,380.8 356.8,379.2 401.6,382.4L404.8,382.4C411.2,384 417.6,385.6 424,385.6C432,385.6 438.4,384 444.8,382.4C472,372.8 491.2,342.4 496,299.2C499.2,260.8 492.8,212.8 475.2,168ZM227.2,444.8L203.2,392L240,387.2L248,451.2L227.2,444.8ZM342.4,291.2C331.2,273.6 320,252.8 310.4,227.2C302.4,203.2 296,180.8 294.4,158.4C299.2,158.4 305.6,163.2 312,168C323.2,179.2 334.4,196.8 340.8,216C353.6,252.8 350.4,281.6 342.4,291.2ZM108.8,377.6L107.2,377.6C96,380.8 72,360 56,320C41.6,280 48,246.4 57.6,243.2C62.4,241.6 166.4,203.2 260.8,116.8C259.2,153.6 265.6,196.8 280,238.4C297.6,284.8 321.6,323.2 348.8,350.4C224,348.8 113.6,376 108.8,377.6ZM462.4,296C459.2,326.4 448,345.6 432,352C428.8,353.6 425.6,353.6 422.4,353.6C404.8,353.6 384,340.8 361.6,315.2C384,296 388.8,252.8 371.2,204.8C361.6,180.8 348.8,160 334.4,145.6C321.6,132.8 307.2,126.4 292.8,126.4C292.8,120 292.8,115.2 294.4,110.4C297.6,80 308.8,60.8 324.8,54.4C328,52.8 331.2,52.8 334.4,52.8C366.4,52.8 416,100.8 444.8,179.2C460.8,219.2 467.2,262.4 462.4,296Z" style="fill:rgb(33,119,186);fill-rule:nonzero;"/>
    </g>
</svg>
