<?xml version="1.0" encoding="UTF-8" standalone="no"?>
<!DOCTYPE svg PUBLIC "-//W3C//DTD SVG 1.1//EN" "http://www.w3.org/Graphics/SVG/1.1/DTD/svg11.dtd">
<svg width="100%" height="100%" viewBox="0 0 500 500" version="1.1" xmlns="http://www.w3.org/2000/svg" xmlns:xlink="http://www.w3.org/1999/xlink" xml:space="preserve" xmlns:serif="http://www.serif.com/" style="fill-rule:evenodd;clip-rule:evenodd;stroke-linejoin:round;stroke-miterlimit:2;">
    <g transform="matrix(72.6745,0,0,72.6745,-50553.5,-14907.6)">
        <path d="M700.49,206.565C700.49,205.772 699.847,205.128 699.054,205.128C698.261,205.128 697.619,205.772 697.619,206.565C697.619,207.358 698.261,208 699.054,208C699.847,208 700.49,207.358 700.49,206.565Z" style="fill:rgb(33,119,186);fill-rule:nonzero;"/>
        <path d="M701.594,212.008C701.39,212.008 701.225,211.842 701.225,211.639C701.225,210.442 700.25,209.468 699.054,209.468C697.858,209.468 696.884,210.442 696.884,211.639C696.884,211.842 696.719,212.008 696.514,212.008C696.31,212.008 696.145,211.842 696.145,211.639C696.145,210.035 697.45,208.729 699.054,208.729C700.659,208.729 701.964,210.035 701.964,211.639C701.964,211.842 701.798,212.008 701.594,212.008Z" style="fill:rgb(33,119,186);fill-rule:nonzero;"/>
    </g>
</svg>
