<?xml version="1.0" encoding="UTF-8" standalone="no"?>
<!DOCTYPE svg PUBLIC "-//W3C//DTD SVG 1.1//EN" "http://www.w3.org/Graphics/SVG/1.1/DTD/svg11.dtd">
<svg width="100%" height="100%" viewBox="0 0 104 121" version="1.1" xmlns="http://www.w3.org/2000/svg" xmlns:xlink="http://www.w3.org/1999/xlink" xml:space="preserve" xmlns:serif="http://www.serif.com/" style="fill-rule:evenodd;clip-rule:evenodd;stroke-linejoin:round;stroke-miterlimit:2;">
    <g transform="matrix(1,0,0,1,-6844.85,-1028.92)">
        <g transform="matrix(8.66029,0,0,8.66029,-884.099,27.6761)">
            <g transform="matrix(0.0289127,0,0,0.0289127,891.028,115.15)">
                <path d="M49.5,215.4L49.5,85.379L49.519,85.379C49.52,82.648 51.277,80.208 53.867,79.341C69.617,74.178 84.205,65.982 96.807,55.215C108.2,45.278 116.877,33.5 121.96,20.577C122.765,17.876 125.266,16.012 128.084,16.012L383.916,16.012L383.916,16.032C386.541,16.032 388.908,17.656 389.854,20.104C394.911,33.216 403.662,45.156 415.193,55.215C427.668,65.877 442.093,74.017 457.669,79.184C460.499,79.898 462.498,82.465 462.496,85.384L462.496,215.4C462.496,397.594 398.99,428.051 280.561,484.849L258.769,495.349C257.021,496.195 254.978,496.195 253.23,495.349C243.572,490.665 237.412,487.711 231.439,484.849C113.01,428.052 49.5,397.6 49.5,215.4ZM62.279,89.871L62.279,215.4C62.279,389.61 123.241,418.848 236.929,473.372C243.789,476.662 250.801,480.024 256,482.535C261.184,480.035 268.215,476.66 275.071,473.371C388.758,418.848 449.721,389.61 449.721,215.4L449.721,89.871C419.482,78.656 392.473,57.671 379.673,28.787L132.327,28.787C119.527,57.668 92.517,78.656 62.279,89.871ZM87.365,215.4C87.365,269.236 91.685,336.033 130.435,378.532C138.28,386.996 146.99,394.615 156.423,401.264C182.067,419.654 220.633,437.84 248.853,451.284C252.471,453.008 255.273,455.034 258.745,453.384C281.481,442.563 304.535,431.684 326.756,419.262C346.656,408.138 366.101,395.495 381.565,378.535C420.316,336.035 424.634,269.235 424.634,215.403L424.634,110.3C424.634,107.834 423.207,105.579 420.978,104.524C409.827,98.744 399.403,91.658 389.926,83.416C380.952,75.608 373.058,66.638 366.453,56.745C365.275,54.962 363.276,53.888 361.139,53.889L361.139,53.875L150.861,53.875C148.571,53.874 146.449,55.105 145.314,57.094C138.755,66.849 130.942,75.699 122.074,83.416C112.535,91.71 102.039,98.834 90.809,104.636C88.698,105.732 87.368,107.921 87.368,110.3L87.368,215.4L87.365,215.4ZM100.14,114.12L100.14,215.4C100.14,265.966 103.733,330.32 139.867,369.949C154.184,385.649 173.042,397.849 191.432,408.131C212.032,419.643 234.124,430.124 256,440.546C284.594,426.923 322.686,409.139 348.141,390.884C356.846,384.761 364.887,377.745 372.133,369.949C408.267,330.32 411.859,265.966 411.859,215.4L411.859,114.121C390.681,102.501 371.671,86.499 357.779,66.649L154.221,66.649C140.329,86.499 121.321,102.501 100.14,114.121L100.14,114.12ZM256,137.471C200.758,137.471 155.3,182.929 155.3,238.171C155.3,293.413 200.758,338.871 256,338.871C311.242,338.871 356.7,293.413 356.7,238.171C356.7,182.929 311.242,137.471 256,137.471ZM213.272,241.884L241.2,267.913C243.76,270.295 247.826,270.149 250.208,267.589L298.949,217.536C300.139,216.342 300.807,214.724 300.807,213.039C300.807,209.545 297.932,206.669 294.437,206.669C292.691,206.669 291.019,207.387 289.817,208.654L245.328,254.336L221.951,232.552C220.772,231.455 219.22,230.845 217.609,230.845C214.113,230.845 211.236,233.722 211.236,237.218C211.236,238.987 211.973,240.679 213.268,241.884L213.272,241.884Z" style="fill:rgb(33,119,186);"/>
            </g>
        </g>
    </g>
</svg>
