<?xml version="1.0" encoding="UTF-8" standalone="no"?>
<!DOCTYPE svg PUBLIC "-//W3C//DTD SVG 1.1//EN" "http://www.w3.org/Graphics/SVG/1.1/DTD/svg11.dtd">
<svg width="100%" height="100%" viewBox="0 0 121 121" version="1.1" xmlns="http://www.w3.org/2000/svg" xmlns:xlink="http://www.w3.org/1999/xlink" xml:space="preserve" xmlns:serif="http://www.serif.com/" style="fill-rule:evenodd;clip-rule:evenodd;stroke-linejoin:round;stroke-miterlimit:2;">
    <g transform="matrix(1,0,0,1,-6835.94,-1719.89)">
        <g transform="matrix(8.66029,0,0,8.66029,-884.099,718.65)">
            <g transform="matrix(0.235939,0,0,0.235939,685.233,91.9959)">
                <g transform="matrix(0.11547,0,0,0.11547,873.942,100.097)">
                    <g>
                        <path d="M482,332.596L482,45C482,20.187 461.813,0 437,0L106,0C81.187,0 61,20.187 61,45L61,61L45,61C20.187,61 0,81.187 0,106C0,130.813 20.187,151 45,151L61,151L61,211L45,211C20.187,211 0,231.187 0,256C0,280.813 20.187,301 45,301L61,301L61,361L45,361C20.187,361 0,381.187 0,406C0,430.813 20.187,451 45,451L61,451L61,466C61,477.955 65.597,489.347 73.944,498.079C82.526,507.056 93.911,512 106,512L407,512C464.897,512 512,464.449 512,406C512,377.457 500.546,351.542 482,332.596ZM45,121C36.729,121 30,114.271 30,106C30,97.729 36.729,91 45,91L76,91C84.271,91 91,97.729 91,106C91,114.271 84.271,121 76,121L45,121ZM45,271C36.729,271 30,264.271 30,256C30,247.729 36.729,241 45,241L76,241C84.271,241 91,247.729 91,256C91,264.271 84.271,271 76,271L45,271ZM76,421L45,421C36.729,421 30,414.271 30,406C30,397.729 36.729,391 45,391L76,391C84.271,391 91,397.729 91,406C91,414.271 84.271,421 76,421ZM106,482C98.01,482 91,474.523 91,466L91,448.42C108.459,442.228 121,425.555 121,406C121,386.445 108.459,369.772 91,363.58L91,298.42C108.459,292.228 121,275.555 121,256C121,236.445 108.459,219.772 91,213.58L91,148.42C108.459,142.228 121,125.555 121,106C121,86.445 108.459,69.772 91,63.58L91,45C91,36.729 97.729,30 106,30L437,30C445.271,30 452,36.729 452,45L452,311.145C438.354,304.645 423.095,301 407,301C349.103,301 302,348.103 302,406C302,435.78 314.233,462.726 333.886,482L106,482Z" style="fill:rgb(33,119,186);fill-rule:nonzero;"/>
                    </g>
                </g>
                <g transform="matrix(0.11547,0,0,0.11547,873.942,100.097)">
                    <g>
                        <path d="M407,121L317,121C308.716,121 302,127.716 302,136C302,144.284 308.716,151 317,151L407,151C415.284,151 422,144.284 422,136C422,127.716 415.284,121 407,121Z" style="fill:rgb(33,119,186);fill-rule:nonzero;"/>
                    </g>
                </g>
                <g transform="matrix(0.11547,0,0,0.11547,873.942,100.097)">
                    <g>
                        <path d="M407,241L317,241C308.716,241 302,247.716 302,256C302,264.284 308.716,271 317,271L407,271C415.284,271 422,264.284 422,256C422,247.716 415.284,241 407,241Z" style="fill:rgb(33,119,186);fill-rule:nonzero;"/>
                    </g>
                </g>
                <g transform="matrix(0.11547,0,0,0.11547,873.942,100.097)">
                    <g>
                        <path d="M437,391L422,391L422,376C422,367.716 415.284,361 407,361C398.716,361 392,367.716 392,376L392,406C392,414.284 398.716,421 407,421L437,421C445.284,421 452,414.284 452,406C452,397.716 445.284,391 437,391Z" style="fill:white;fill-rule:nonzero;"/>
                    </g>
                </g>
                <g transform="matrix(0.11547,0,0,0.11547,873.942,100.097)">
                    <g>
                        <path d="M266.606,95.393C260.749,89.535 251.251,89.535 245.394,95.394L196,144.787L172.389,121.176C166.532,115.318 157.034,115.318 151.176,121.176C145.318,127.034 145.318,136.531 151.176,142.389L185.394,176.607C188.322,179.536 192.161,181 196,181C199.839,181 203.678,179.536 206.606,176.606L266.606,116.606C272.464,110.748 272.464,101.251 266.606,95.393Z" style="fill:rgb(33,119,186);fill-rule:nonzero;"/>
                    </g>
                </g>
                <g transform="matrix(0.11547,0,0,0.11547,873.942,100.097)">
                    <g>
                        <path d="M266.606,215.393C260.749,209.535 251.251,209.535 245.394,215.394L196,264.787L172.389,241.176C166.532,235.318 157.034,235.318 151.176,241.176C145.318,247.034 145.318,256.531 151.176,262.389L185.394,296.607C188.322,299.536 192.161,301 196,301C199.839,301 203.678,299.536 206.606,296.606L266.606,236.606C272.464,230.748 272.464,221.251 266.606,215.393Z" style="fill:rgb(33,119,186);fill-rule:nonzero;"/>
                    </g>
                </g>
                <g transform="matrix(0.11547,0,0,0.11547,873.942,100.097)">
                    <g>
                        <path d="M266.606,335.393C260.749,329.535 251.251,329.535 245.394,335.394L196,384.787L172.389,361.176C166.532,355.318 157.034,355.318 151.176,361.176C145.318,367.034 145.318,376.531 151.176,382.389L185.394,416.607C188.322,419.536 192.161,421 196,421C199.839,421 203.678,419.536 206.606,416.606L266.606,356.606C272.464,350.748 272.464,341.251 266.606,335.393Z" style="fill:rgb(33,119,186);fill-rule:nonzero;"/>
                    </g>
                </g>
            </g>
        </g>
    </g>
</svg>
